<svg xmlns="http://www.w3.org/2000/svg" width="311.904" height="139.131" viewBox="0 0 311.904 139.131">
  <g id="Layer_4" data-name="Layer 4" transform="translate(0 0.001)">
    <path id="Path_4" data-name="Path 4" d="M34.137,92.106a9.435,9.435,0,0,1-.568,3.2H15.918a9.084,9.084,0,0,1-.568-3.2,9.345,9.345,0,0,1,.657-3.436H33.479A9.2,9.2,0,0,1,34.137,92.106Z" transform="translate(-3.884 -22.435)" fill="#333" opacity="0.22"/>
    <path id="Path_5" data-name="Path 5" d="M33.695,86.644H16.23a9.386,9.386,0,0,1,17.472,0Z" transform="translate(-4.106 -20.416)" fill="#333" opacity="0.22"/>
    <path id="Path_6" data-name="Path 6" d="M16.11,97.56H33.746c-.1.284-.209.545-.329.814a9.376,9.376,0,0,1-16.5.859,9.806,9.806,0,0,1-.807-1.666Z" transform="translate(-4.076 -24.684)" fill="#333" opacity="0.22"/>
    <path id="Path_7" data-name="Path 7" d="M15.82,110.949c2.271,25.39.971,38.657-.934,46.209-.448,1.778-1.7,6.267.934,9.091,1.6,1.718,4.654.575,15.739,0,1.89-.1,3.429-.157,4.4-.187-2.786.1-3.765-12.3-3.817-13.827q-.291-8.874-.717-17.7a227.763,227.763,0,0,1,.134-23.769,15.463,15.463,0,0,1-4.161,1.666,16.432,16.432,0,0,1-3.869.463,16.04,16.04,0,0,1-7.709-1.95Z" transform="translate(-3.592 -28.026)" fill="#0d61d2"/>
    <path id="Path_8" data-name="Path 8" d="M96.653,126.824c.433,3.22.605,7.014-1.7,9.629-1.9,2.151-4.728,2.5-6.133,2.629-4.631.418-9.255-1.972-12.266-5.4-3.167-3.608-3.234-8.307-3.929-12.811-1.1-7.089-3.459-13.842-7.94-19.526-6.155-7.8-16.329-7.769-24.957-10.719A18.886,18.886,0,0,1,36.6,89.467q.112-3.137.127-6.439c0-2.868-.045-5.647-.149-8.329a33.929,33.929,0,0,0,15.254,7.358,37.648,37.648,0,0,0,6.409.583A35.951,35.951,0,0,0,93.9,50.19c.112-1.12.179-2.248.179-3.4A35.656,35.656,0,0,0,90.8,31.807v-.015A36.062,36.062,0,0,0,80.2,18.458l-.015-.007a35.65,35.65,0,0,0-19.407-7.433c-.837-.06-1.681-.1-2.532-.1a35.932,35.932,0,0,0-33.876,24.1H41.01l-20.5,21.147L0,35.019H14.566A45.857,45.857,0,0,1,44.132,2.308a46.813,46.813,0,0,1,29.394.12,46.249,46.249,0,0,1,14.88,8.127c.523.426,1.031.874,1.531,1.322h.007A47.242,47.242,0,0,1,100.276,25.4a.026.026,0,0,0,.007.015,49.7,49.7,0,0,1,5.132,17.024c1.374,12.273-1.935,24.927-10.854,34.429a39.212,39.212,0,0,1-5.6,4.945c-3.093,2.248-6.021,4.818-7.552,8.023a11.259,11.259,0,0,0-.784,7.642,35.233,35.233,0,0,0,4.714,10.988c2.084,3.2,5.147,5.595,7.41,8.658a21.139,21.139,0,0,1,3.234,6.521,20.86,20.86,0,0,1,.672,3.175Z" transform="translate(0 0)" fill="#fff"/>
    <path id="Path_9" data-name="Path 9" d="M17.02,88.98v.007H33.237V88.98Z" transform="translate(-4.306 -22.513)" fill="#fff"/>
    <path id="Path_10" data-name="Path 10" d="M25.132,81.58a8.73,8.73,0,0,0-8.112,5.528H33.237A8.72,8.72,0,0,0,25.132,81.58Z" transform="translate(-4.306 -20.641)" fill="#f8984b"/>
    <path id="Path_11" data-name="Path 11" d="M16.2,92.18a8.486,8.486,0,0,0,.53,2.966H33.112a8.53,8.53,0,0,0-.075-6.155H16.813A8.688,8.688,0,0,0,16.2,92.18Z" transform="translate(-4.099 -22.516)" fill="#fff"/>
    <path id="Path_12" data-name="Path 12" d="M17.657,98.786a8.706,8.706,0,0,0,15.321-.792c.112-.247.217-.5.314-.754H16.91A8.686,8.686,0,0,0,17.657,98.786Z" transform="translate(-4.278 -24.603)" fill="#218b15"/>
    <path id="Path_13" data-name="Path 13" d="M33.284,97.237V97.23H16.91v.007Z" transform="translate(-4.278 -24.6)" fill="#218b15"/>
    <path id="Path_14" data-name="Path 14" d="M276.271,6.227Q265.951,27.774,257.6,50.053c-2.734,7.3-5.319,14.686-6.581,22.32s-1.143,15.567,1.442,22.91c1.494,4.25,3.735,9.166,1.008,12.871a9.556,9.556,0,0,1-6.193,3.324c-14.267,2.39-19.272-11.563-16.322-21.767,1.247-4.325,3.1-8.553,3.518-13.02.889-9.554-4-18.7-7.216-27.527-3.391-9.337-6.775-18.764-12.437-27.19-2.4-3.571-5.251-6.94-6.865-10.869-.433-1.061-.687-2.443.261-3.167a3.631,3.631,0,0,1,2.749-.269,52.34,52.34,0,0,0,19.078-.508q6.667,23.754,11.115,47.979c3.974-7.7,7.836-15.552,9.726-23.9S252.547,13.9,248.573,6.19q13.849.011,27.7.03Z" transform="translate(-52.518 -1.566)" fill="#fff"/>
    <path id="Path_15" data-name="Path 15" d="M156.436,6.861c3.04,47.389,1.292,72.152-1.247,86.232-.6,3.317-2.263,11.7,1.247,16.972,2.136,3.212,6.222,1.076,21.043,0,2.525-.187,4.587-.291,5.886-.351-3.727.179-5.035-22.94-5.1-25.8q-.392-16.561-.956-33.017c-.366-10.727-.568-25.756.179-44.356-1.292,1.046-18.032,2.629-21.043.329Z" transform="translate(-39.031 -1.655)" fill="#fff"/>
    <g id="Group_189" data-name="Group 189" transform="translate(112.399 117.374)">
      <path id="Path_16" data-name="Path 16" d="M166.478,158.21a5,5,0,0,1,1.994,1.755,4.529,4.529,0,0,1,.74,2.532,4.341,4.341,0,0,1-3.324,4.654v.12q3.787.874,3.787,5a5.046,5.046,0,0,1-.769,2.779,5.163,5.163,0,0,1-2.1,1.875,6.382,6.382,0,0,1-2.921.665H150.47v-20h13.244a6.13,6.13,0,0,1,2.764.627Zm-9.614,7.171h4.392a1.372,1.372,0,0,0,1.053-.448,1.59,1.59,0,0,0,.418-1.12v-.291a1.5,1.5,0,0,0-.433-1.091,1.4,1.4,0,0,0-1.038-.448h-4.392v3.4Zm0,7.56h4.855a1.372,1.372,0,0,0,1.053-.448,1.59,1.59,0,0,0,.418-1.12v-.291a1.59,1.59,0,0,0-.418-1.12,1.383,1.383,0,0,0-1.053-.448h-4.855Z" transform="translate(-150.47 -157.246)" fill="#0d61d2"/>
      <path id="Path_17" data-name="Path 17" d="M201.5,175.784q-2.577,2.151-7.313,2.151t-7.328-2.151a7.664,7.664,0,0,1-2.585-6.252V157.58h6.387v11.862a3.873,3.873,0,0,0,.9,2.689,3.874,3.874,0,0,0,5.214-.015,3.87,3.87,0,0,0,.911-2.674V157.58h6.387v11.952A7.7,7.7,0,0,1,201.5,175.784Z" transform="translate(-159.022 -157.244)" fill="#0d61d2"/>
      <path id="Path_18" data-name="Path 18" d="M235.518,158.676a5.244,5.244,0,0,1,2.517,4.609v.351h-5.983v-.12a1.886,1.886,0,0,0-.635-1.457,2.787,2.787,0,0,0-1.935-.583,3.982,3.982,0,0,0-1.95.381,1.085,1.085,0,0,0-.68.934,1.247,1.247,0,0,0,.926,1.165,17.3,17.3,0,0,0,2.98.784,31.833,31.833,0,0,1,3.944,1.031,6.7,6.7,0,0,1,2.7,1.755,4.75,4.75,0,0,1,1.188,3.317,6.055,6.055,0,0,1-2.383,5.266,10.7,10.7,0,0,1-6.372,1.718,14.027,14.027,0,0,1-7.246-1.569q-2.588-1.569-2.585-5.558h6.043a2.27,2.27,0,0,0,.777,2.024,4.5,4.5,0,0,0,2.428.508,6.624,6.624,0,0,0,2.009-.261,1.038,1.038,0,0,0,.792-1.076,1.175,1.175,0,0,0-.881-1.091,17.637,17.637,0,0,0-2.876-.769,32.646,32.646,0,0,1-4.019-1.091,6.8,6.8,0,0,1-2.779-1.875,5.081,5.081,0,0,1-1.188-3.548,5.278,5.278,0,0,1,2.532-4.84,12.041,12.041,0,0,1,6.4-1.554,11.453,11.453,0,0,1,6.275,1.554Z" transform="translate(-168.064 -157.13)" fill="#0d61d2"/>
      <path id="Path_19" data-name="Path 19" d="M254.2,177.584v-20h6.387v20Z" transform="translate(-176.715 -157.244)" fill="#0d61d2"/>
      <path id="Path_20" data-name="Path 20" d="M287.77,177.584l-8.359-9.711v9.711H273.54v-20h5.58l8.359,9.86v-9.86h5.871v20Z" transform="translate(-181.608 -157.244)" fill="#0d61d2"/>
      <path id="Path_21" data-name="Path 21" d="M310.47,157.58h17.2v4.8H316.864v2.764h9.248v4.594h-9.248v3.055h11.018v4.8h-17.4v-20Z" transform="translate(-190.952 -157.244)" fill="#0d61d2"/>
      <path id="Path_22" data-name="Path 22" d="M357.427,158.676a5.259,5.259,0,0,1,2.517,4.609v.351h-5.983v-.12a1.886,1.886,0,0,0-.635-1.457,2.787,2.787,0,0,0-1.935-.583,3.982,3.982,0,0,0-1.95.381,1.085,1.085,0,0,0-.68.934,1.247,1.247,0,0,0,.926,1.165,17.3,17.3,0,0,0,2.98.784,31.836,31.836,0,0,1,3.944,1.031,6.7,6.7,0,0,1,2.7,1.755,4.75,4.75,0,0,1,1.188,3.317,6.055,6.055,0,0,1-2.383,5.266,10.7,10.7,0,0,1-6.372,1.718,14.027,14.027,0,0,1-7.246-1.569q-2.588-1.569-2.585-5.558h6.043a2.27,2.27,0,0,0,.777,2.024,4.5,4.5,0,0,0,2.428.508,6.624,6.624,0,0,0,2.009-.261,1.039,1.039,0,0,0,.792-1.076,1.175,1.175,0,0,0-.881-1.091,17.635,17.635,0,0,0-2.876-.769,32.651,32.651,0,0,1-4.019-1.091,6.8,6.8,0,0,1-2.779-1.875,5.082,5.082,0,0,1-1.188-3.548,5.279,5.279,0,0,1,2.532-4.84,12.023,12.023,0,0,1,6.4-1.554,11.436,11.436,0,0,1,6.275,1.554Z" transform="translate(-198.909 -157.13)" fill="#0d61d2"/>
      <path id="Path_23" data-name="Path 23" d="M390.047,158.676a5.259,5.259,0,0,1,2.517,4.609v.351h-5.983v-.12a1.886,1.886,0,0,0-.635-1.457,2.787,2.787,0,0,0-1.935-.583,3.981,3.981,0,0,0-1.95.381,1.085,1.085,0,0,0-.68.934,1.247,1.247,0,0,0,.926,1.165,17.3,17.3,0,0,0,2.981.784,31.834,31.834,0,0,1,3.944,1.031,6.7,6.7,0,0,1,2.7,1.755,4.75,4.75,0,0,1,1.188,3.317,6.055,6.055,0,0,1-2.383,5.266,10.7,10.7,0,0,1-6.372,1.718,14.027,14.027,0,0,1-7.246-1.569q-2.588-1.569-2.585-5.558h6.043a2.27,2.27,0,0,0,.777,2.024,4.5,4.5,0,0,0,2.428.508,6.624,6.624,0,0,0,2.009-.261,1.039,1.039,0,0,0,.792-1.076,1.175,1.175,0,0,0-.881-1.091,17.637,17.637,0,0,0-2.876-.769,32.648,32.648,0,0,1-4.019-1.091,6.8,6.8,0,0,1-2.779-1.875,5.081,5.081,0,0,1-1.188-3.548,5.278,5.278,0,0,1,2.532-4.84,12.023,12.023,0,0,1,6.4-1.554,11.436,11.436,0,0,1,6.275,1.554Z" transform="translate(-207.162 -157.13)" fill="#0d61d2"/>
    </g>
    <path id="Path_24" data-name="Path 24" d="M381.29,18.264a37.735,37.735,0,0,0-5.774-6.566c-6.962-6.23-15.9-9.1-24.74-9.793s-17.7.627-26.488,1.987a9.142,9.142,0,0,0-4.654,1.643c-2.017,1.688-2.6,4.766-2.988,7.574a245.05,245.05,0,0,0-1.658,50.945c.941,13.132,2.346,28.669,11.84,37.768,5.095,4.885,11.84,6.954,18.451,7.94,10.114,1.509,21.02.575,29.484-5.886,5.991-4.572,10.308-11.623,12.893-19.265s3.533-15.9,3.742-24.083c.232-9-.426-18.114-2.876-26.675a52.575,52.575,0,0,0-7.231-15.59Zm-4.422,43.557q0,13.457-6.29,21.379t-18.2,7.926q-11.9,0-18.115-7.926T328.06,61.821V50.026q0-13.457,6.207-21.379t18.115-7.926q11.911,0,18.2,7.926t6.29,21.379Z" transform="translate(-79.536 -0.434)" fill="#fff"/>
  </g>
</svg>
