<svg xmlns="http://www.w3.org/2000/svg" width="222.148" height="99.094" viewBox="0 0 222.148 99.094">
  <g id="Layer_4" data-name="Layer 4" transform="translate(0 0.001)">
    <path id="Path_4" data-name="Path 4" d="M28.731,91.117a6.72,6.72,0,0,1-.4,2.277H15.754a6.47,6.47,0,0,1-.4-2.277,6.656,6.656,0,0,1,.468-2.447H28.262A6.549,6.549,0,0,1,28.731,91.117Z" transform="translate(-7.183 -41.495)" fill="#333" opacity="0.22"/>
    <path id="Path_5" data-name="Path 5" d="M28.669,84.93H16.23a6.685,6.685,0,0,1,12.444,0Z" transform="translate(-7.595 -37.761)" fill="#333" opacity="0.22"/>
    <path id="Path_6" data-name="Path 6" d="M16.11,97.56H28.671c-.069.2-.149.388-.234.58a6.678,6.678,0,0,1-11.753.612,6.984,6.984,0,0,1-.575-1.186Z" transform="translate(-7.539 -45.655)" fill="#333" opacity="0.22"/>
    <path id="Path_7" data-name="Path 7" d="M15.353,110.9c1.617,18.084.692,27.533-.665,32.911-.319,1.266-1.208,4.464.665,6.475,1.139,1.224,3.315.41,11.21,0,1.346-.069,2.442-.112,3.134-.133-1.984.069-2.681-8.757-2.719-9.848q-.207-6.321-.511-12.6a162.22,162.22,0,0,1,.1-16.929,11.013,11.013,0,0,1-2.963,1.186,11.7,11.7,0,0,1-2.756.33,11.424,11.424,0,0,1-5.491-1.389Z" transform="translate(-6.643 -51.837)" fill="#0d61d2"/>
    <path id="Path_8" data-name="Path 8" d="M68.839,90.328c.309,2.293.431,5-1.208,6.858a6.45,6.45,0,0,1-4.368,1.873,10.773,10.773,0,0,1-8.736-3.847c-2.256-2.57-2.3-5.916-2.8-9.124A29.283,29.283,0,0,0,46.074,72.18c-4.384-5.554-11.63-5.533-17.775-7.635a13.451,13.451,0,0,1-2.235-.825q.08-2.235.09-4.586c0-2.043-.032-4.022-.106-5.932a24.165,24.165,0,0,0,10.864,5.24,26.814,26.814,0,0,0,4.565.415,25.605,25.605,0,0,0,25.4-23.111c.08-.8.128-1.6.128-2.421a25.4,25.4,0,0,0-2.341-10.673v-.011a25.685,25.685,0,0,0-7.55-9.5l-.011-.005A25.391,25.391,0,0,0,43.286,7.847c-.6-.043-1.2-.069-1.8-.069A25.592,25.592,0,0,0,17.355,24.941H29.208L14.61,40,0,24.941H10.375a32.661,32.661,0,0,1,21.058-23.3,33.341,33.341,0,0,1,20.935.085,32.94,32.94,0,0,1,10.6,5.788c.372.3.734.622,1.091.942h.005a33.647,33.647,0,0,1,7.358,9.635.019.019,0,0,0,.005.011A35.4,35.4,0,0,1,75.08,30.23a30.468,30.468,0,0,1-7.73,24.521,27.928,27.928,0,0,1-3.99,3.522,16.311,16.311,0,0,0-5.379,5.714,8.019,8.019,0,0,0-.559,5.443,25.094,25.094,0,0,0,3.357,7.826c1.484,2.277,3.666,3.985,5.278,6.166a15.056,15.056,0,0,1,2.3,4.645,14.857,14.857,0,0,1,.479,2.261Z" fill="#ed6c4d"/>
    <path id="Path_9" data-name="Path 9" d="M17.02,88.98v.005H28.57V88.98Z" transform="translate(-7.965 -41.64)" fill="#fff"/>
    <path id="Path_10" data-name="Path 10" d="M22.8,81.58a6.218,6.218,0,0,0-5.778,3.937H28.57A6.211,6.211,0,0,0,22.8,81.58Z" transform="translate(-7.965 -38.177)" fill="#f8984b"/>
    <path id="Path_11" data-name="Path 11" d="M16.2,91.262a6.044,6.044,0,0,0,.378,2.112H28.245a6.076,6.076,0,0,0-.053-4.384H16.636A6.188,6.188,0,0,0,16.2,91.262Z" transform="translate(-7.581 -41.645)" fill="#fff"/>
    <path id="Path_12" data-name="Path 12" d="M17.442,98.341a6.2,6.2,0,0,0,10.912-.564c.08-.176.154-.356.223-.537H16.91A6.187,6.187,0,0,0,17.442,98.341Z" transform="translate(-7.913 -45.506)" fill="#218b15"/>
    <path id="Path_13" data-name="Path 13" d="M28.572,97.235V97.23H16.91v.005Z" transform="translate(-7.913 -45.501)" fill="#218b15"/>
    <path id="Path_14" data-name="Path 14" d="M256.5,6.217q-7.35,15.346-13.3,31.214a85.533,85.533,0,0,0-4.687,15.9,33.007,33.007,0,0,0,1.027,16.317c1.064,3.027,2.66,6.528.718,9.167a6.806,6.806,0,0,1-4.411,2.368c-10.162,1.7-13.726-8.236-11.625-15.5.888-3.08,2.208-6.092,2.506-9.273.633-6.8-2.852-13.317-5.139-19.605-2.415-6.65-4.826-13.365-8.858-19.366-1.708-2.543-3.74-4.943-4.889-7.741-.309-.755-.489-1.74.186-2.256a2.586,2.586,0,0,1,1.958-.192,37.279,37.279,0,0,0,13.588-.362Q228.328,23.8,231.5,41.054c2.83-5.485,5.581-11.077,6.927-17.025S239.6,11.681,236.774,6.19q9.864.008,19.728.021Z" transform="translate(-97.137 -2.897)" fill="#ed6c4d"/>
    <path id="Path_15" data-name="Path 15" d="M155.812,6.769c2.165,33.752.92,51.389-.888,61.418-.426,2.362-1.612,8.332.888,12.088,1.522,2.288,4.432.766,14.987,0,1.8-.133,3.267-.207,4.192-.25-2.655.128-3.586-16.339-3.634-18.376q-.279-11.8-.681-23.516c-.261-7.64-.4-18.344.128-31.592-.92.745-12.843,1.873-14.987.234Z" transform="translate(-72.192 -3.061)" fill="#ed6c4d"/>
    <g id="Group_189" data-name="Group 189" transform="translate(80.055 83.598)">
      <path id="Path_16" data-name="Path 16" d="M161.871,158.032a3.56,3.56,0,0,1,1.421,1.25,3.226,3.226,0,0,1,.527,1.8,3.092,3.092,0,0,1-2.368,3.315v.085a3.255,3.255,0,0,1,2.7,3.565,3.594,3.594,0,0,1-.548,1.979,3.677,3.677,0,0,1-1.5,1.335,4.545,4.545,0,0,1-2.08.474H150.47V157.59H159.9a4.366,4.366,0,0,1,1.969.447Zm-6.847,5.107h3.128a.977.977,0,0,0,.75-.319,1.132,1.132,0,0,0,.3-.8v-.207a1.072,1.072,0,0,0-.309-.777,1,1,0,0,0-.74-.319h-3.128v2.421Zm0,5.384h3.458a.977.977,0,0,0,.75-.319,1.132,1.132,0,0,0,.3-.8V167.2a1.132,1.132,0,0,0-.3-.8.985.985,0,0,0-.75-.319h-3.458Z" transform="translate(-150.47 -157.345)" fill="#0d61d2"/>
      <path id="Path_17" data-name="Path 17" d="M196.539,170.546a9.637,9.637,0,0,1-10.428,0,5.459,5.459,0,0,1-1.841-4.453V157.58h4.549v8.449a2.758,2.758,0,0,0,.638,1.915,2.759,2.759,0,0,0,3.714-.011,2.756,2.756,0,0,0,.649-1.9V157.58h4.549v8.512A5.485,5.485,0,0,1,196.539,170.546Z" transform="translate(-166.287 -157.341)" fill="#0d61d2"/>
      <path id="Path_18" data-name="Path 18" d="M231.055,158.231a3.735,3.735,0,0,1,1.793,3.283v.25h-4.262v-.085a1.344,1.344,0,0,0-.452-1.037,1.985,1.985,0,0,0-1.378-.415,2.836,2.836,0,0,0-1.389.271.773.773,0,0,0-.484.665.888.888,0,0,0,.66.83,12.324,12.324,0,0,0,2.123.559,22.672,22.672,0,0,1,2.809.734,4.774,4.774,0,0,1,1.926,1.25,3.383,3.383,0,0,1,.846,2.362,4.313,4.313,0,0,1-1.7,3.751,7.619,7.619,0,0,1-4.538,1.224,9.99,9.99,0,0,1-5.161-1.117q-1.843-1.117-1.841-3.958h4.3a1.617,1.617,0,0,0,.553,1.442,3.208,3.208,0,0,0,1.729.362,4.718,4.718,0,0,0,1.431-.186.74.74,0,0,0,.564-.766.837.837,0,0,0-.628-.777,12.56,12.56,0,0,0-2.048-.548,23.252,23.252,0,0,1-2.862-.777,4.846,4.846,0,0,1-1.979-1.335,3.619,3.619,0,0,1-.846-2.527,3.759,3.759,0,0,1,1.8-3.448,8.576,8.576,0,0,1,4.559-1.107,8.157,8.157,0,0,1,4.469,1.107Z" transform="translate(-183.013 -157.13)" fill="#0d61d2"/>
      <path id="Path_19" data-name="Path 19" d="M254.2,171.828V157.58h4.549v14.248Z" transform="translate(-199.013 -157.341)" fill="#0d61d2"/>
      <path id="Path_20" data-name="Path 20" d="M283.675,171.828l-5.953-6.916v6.916H273.54V157.58h3.974l5.953,7.023V157.58h4.182v14.248Z" transform="translate(-208.063 -157.341)" fill="#0d61d2"/>
      <path id="Path_21" data-name="Path 21" d="M310.47,157.58h12.253V161h-7.7v1.969h6.587v3.272h-6.587v2.176h7.847v3.416h-12.4V157.58Z" transform="translate(-225.345 -157.341)" fill="#0d61d2"/>
      <path id="Path_22" data-name="Path 22" d="M352.965,158.231a3.746,3.746,0,0,1,1.793,3.283v.25H350.5v-.085a1.344,1.344,0,0,0-.452-1.037,1.985,1.985,0,0,0-1.378-.415,2.836,2.836,0,0,0-1.389.271.773.773,0,0,0-.484.665.888.888,0,0,0,.66.83,12.324,12.324,0,0,0,2.123.559,22.674,22.674,0,0,1,2.809.734,4.774,4.774,0,0,1,1.926,1.25,3.383,3.383,0,0,1,.846,2.362,4.313,4.313,0,0,1-1.7,3.751,7.619,7.619,0,0,1-4.538,1.224,9.99,9.99,0,0,1-5.161-1.117q-1.843-1.117-1.841-3.958h4.3a1.617,1.617,0,0,0,.553,1.442,3.208,3.208,0,0,0,1.729.362,4.718,4.718,0,0,0,1.431-.186.74.74,0,0,0,.564-.766.837.837,0,0,0-.628-.777,12.561,12.561,0,0,0-2.048-.548,23.255,23.255,0,0,1-2.862-.777,4.846,4.846,0,0,1-1.979-1.335,3.619,3.619,0,0,1-.846-2.527,3.76,3.76,0,0,1,1.8-3.448,8.563,8.563,0,0,1,4.56-1.107,8.145,8.145,0,0,1,4.469,1.107Z" transform="translate(-240.063 -157.13)" fill="#0d61d2"/>
      <path id="Path_23" data-name="Path 23" d="M385.585,158.231a3.746,3.746,0,0,1,1.793,3.283v.25h-4.262v-.085a1.344,1.344,0,0,0-.452-1.037,1.985,1.985,0,0,0-1.378-.415,2.836,2.836,0,0,0-1.389.271.773.773,0,0,0-.484.665.888.888,0,0,0,.66.83,12.323,12.323,0,0,0,2.123.559,22.672,22.672,0,0,1,2.809.734,4.774,4.774,0,0,1,1.926,1.25,3.383,3.383,0,0,1,.846,2.362,4.313,4.313,0,0,1-1.7,3.751,7.619,7.619,0,0,1-4.538,1.224,9.99,9.99,0,0,1-5.161-1.117q-1.843-1.117-1.841-3.958h4.3a1.616,1.616,0,0,0,.553,1.442,3.208,3.208,0,0,0,1.729.362,4.718,4.718,0,0,0,1.431-.186.74.74,0,0,0,.564-.766.837.837,0,0,0-.628-.777,12.56,12.56,0,0,0-2.048-.548,23.253,23.253,0,0,1-2.862-.777,4.845,4.845,0,0,1-1.979-1.335,3.619,3.619,0,0,1-.846-2.527,3.759,3.759,0,0,1,1.8-3.448,8.563,8.563,0,0,1,4.559-1.107,8.145,8.145,0,0,1,4.469,1.107Z" transform="translate(-255.328 -157.13)" fill="#0d61d2"/>
    </g>
    <path id="Path_24" data-name="Path 24" d="M362.03,13.5a26.877,26.877,0,0,0-4.113-4.677C352.958,4.388,346.6,2.345,340.3,1.85S327.687,2.3,321.43,3.265a6.511,6.511,0,0,0-3.315,1.17c-1.437,1.2-1.851,3.394-2.128,5.395a174.533,174.533,0,0,0-1.181,36.284c.67,9.353,1.671,20.419,8.433,26.9,3.628,3.479,8.433,4.953,13.141,5.655,7.2,1.075,14.971.41,21-4.192,4.267-3.256,7.342-8.278,9.183-13.721A58.362,58.362,0,0,0,369.228,43.6a63.342,63.342,0,0,0-2.048-19,37.446,37.446,0,0,0-5.15-11.1Zm-3.15,31.023q0,9.585-4.48,15.227T341.44,65.4q-8.475,0-12.9-5.645t-4.421-15.227v-8.4q0-9.585,4.421-15.227t12.9-5.645q8.483,0,12.96,5.645t4.48,15.227Z" transform="translate(-147.111 -0.802)" fill="#ed6c4d"/>
  </g>
</svg>
